<?xml version="1.0" standalone="no"?>
<!DOCTYPE svg PUBLIC "-//W3C//DTD SVG 20010904//EN"
 "http://www.w3.org/TR/2001/REC-SVG-20010904/DTD/svg10.dtd">
<svg version="1.0" xmlns="http://www.w3.org/2000/svg"
 width="206.000000pt" height="212.000000pt" viewBox="0 0 206.000000 212.000000"
 preserveAspectRatio="xMidYMid meet">

<g transform="translate(0.000000,212.000000) scale(0.100000,-0.100000)"
fill="#000000" stroke="none">
<path d="M811 2029 c-169 -48 -337 -227 -406 -432 -51 -155 -86 -317 -96 -455
-5 -75 -14 -181 -19 -236 -6 -54 -10 -130 -10 -168 0 -201 -53 -498 -92 -519
-10 -5 -18 -16 -18 -25 0 -8 -7 -17 -15 -20 -12 -5 -15 -25 -15 -90 l0 -84
870 0 871 0 -3 83 c-3 76 -5 82 -25 85 -25 4 -24 -3 -47 242 -42 433 -92 814
-122 940 -57 234 -165 445 -286 556 -103 95 -233 158 -279 134 -28 -15 -209
-14 -234 1 -5 4 -39 -2 -74 -12z m110 -112 c-10 -9 -11 -8 -5 6 3 10 9 15 12
12 3 -3 0 -11 -7 -18z m-7 -49 c-13 -21 -13 -60 0 -73 8 -8 16 -18 18 -23 5
-12 124 -82 139 -82 22 0 139 -99 139 -118 0 -5 7 -15 15 -22 9 -7 26 -34 38
-59 34 -68 78 -144 94 -163 23 -26 8 -36 -65 -43 -99 -10 -172 -32 -172 -53 0
-9 -7 -26 -15 -36 -18 -24 -19 -62 -2 -73 6 -4 23 -6 36 -4 14 1 21 -1 17 -7
-13 -21 14 -22 36 -2 l23 21 9 -21 c5 -11 17 -20 28 -20 10 0 18 -4 18 -9 0
-5 9 -13 21 -16 17 -6 18 -9 7 -22 -11 -14 -6 -15 48 -9 82 10 95 -5 99 -110
3 -88 -6 -129 -35 -156 -11 -10 -20 -25 -20 -32 0 -8 -7 -19 -15 -26 -8 -7
-15 -27 -15 -44 0 -17 -7 -41 -15 -53 -27 -39 -76 -83 -86 -78 -5 4 -18 -2
-29 -13 -20 -18 -22 -44 -7 -69 9 -15 -42 -54 -101 -76 -95 -37 -262 -2 -313
66 -24 32 -33 67 -18 67 5 0 9 -4 9 -8 0 -5 7 -9 15 -9 22 0 13 21 -11 26 -10
2 -26 12 -36 23 -9 11 -21 17 -27 14 -12 -8 -117 101 -113 117 2 8 -1 8 -9 -1
-31 -30 -45 12 -16 46 12 12 15 22 9 22 -7 0 -12 5 -12 12 0 6 -13 39 -30 74
-34 72 -49 152 -42 222 6 68 33 92 62 57 7 -8 21 -15 31 -15 10 0 33 -9 51
-20 46 -28 148 -26 148 2 0 6 -6 8 -13 5 -8 -3 -20 -1 -28 4 -11 7 -9 9 8 9
13 0 24 8 28 20 8 24 15 25 41 5 18 -14 18 -14 -11 -15 -24 -1 -26 -3 -11 -9
29 -11 68 -1 62 15 -4 10 4 14 28 14 44 0 49 16 26 81 -22 63 -31 68 -155 76
-105 7 -150 0 -184 -26 -23 -18 -23 -18 26 -8 32 7 69 7 103 1 44 -7 54 -13
56 -31 4 -21 -1 -23 -39 -25 -23 0 -49 0 -57 0 -31 4 -46 3 -86 -4 -37 -6 -43
-4 -49 15 -11 37 43 243 76 285 9 11 29 48 43 81 31 68 61 103 124 147 35 24
43 35 39 54 -2 13 0 24 4 24 5 0 8 3 7 8 -2 4 8 29 21 55 16 34 26 45 32 36 4
-7 5 -17 3 -21z m473 -635 c6 -17 -50 -43 -93 -43 -31 0 -35 2 -24 15 10 12
10 15 -1 15 -30 0 8 19 46 23 56 5 68 4 72 -10z m-453 -1107 c19 4 31 2 37 -7
6 -10 9 -11 9 -1 0 6 8 12 18 12 10 0 24 -6 31 -12 11 -10 13 -10 7 0 -5 8 2
12 21 13 15 1 43 2 62 4 43 4 70 -18 49 -39 -8 -7 -24 -17 -36 -20 -13 -4 -22
-16 -22 -27 0 -25 -14 -24 -51 3 -27 21 -31 21 -40 7 -8 -15 -13 -15 -46 -4
-27 9 -44 10 -58 3 -11 -6 -17 -7 -12 -3 8 10 -31 55 -48 55 -6 0 -12 6 -12
14 0 11 7 12 31 5 17 -5 44 -6 60 -3z"/>
<path d="M1190 1090 c0 -5 5 -10 10 -10 6 0 10 5 10 10 0 6 -4 10 -10 10 -5 0
-10 -4 -10 -10z"/>
<path d="M1258 1053 c7 -3 16 -2 19 1 4 3 -2 6 -13 5 -11 0 -14 -3 -6 -6z"/>
<path d="M916 844 c-11 -7 -23 -11 -27 -8 -18 11 -8 -16 12 -35 33 -30 101
-39 184 -23 69 14 82 20 88 43 4 14 1 19 -8 16 -7 -3 -22 1 -34 9 -18 13 -25
13 -66 -6 -34 -16 -50 -18 -64 -10 -47 24 -67 28 -85 14z"/>
<path d="M910 690 c-14 -4 -39 -8 -57 -9 -35 -1 -54 -19 -32 -32 8 -4 45 -38
83 -74 l70 -67 63 5 c60 4 67 8 116 54 29 27 63 56 76 65 19 14 22 20 12 31
-17 21 -131 36 -201 27 -14 -2 -43 -1 -65 3 -22 3 -51 2 -65 -3z m135 -71 c17
1 39 2 49 4 40 5 25 -22 -21 -37 -54 -18 -95 -11 -138 22 -33 26 -24 31 33 20
26 -5 61 -9 77 -9z"/>
</g>
</svg>
